<svg xmlns="http://www.w3.org/2000/svg" viewBox="0 0 48 48"><path fill="#FFC107" d="M43.611 20.083H42V20H24v8h11.303c-1.649 4.657-6.08 8-11.303 8c-6.627 0-12-5.373-12-12s5.373-12 12-12c3.059 0 5.842 1.154 7.961 3.039l5.657-5.657C34.046 3.66 29.261 2 24 2C11.85 2 2 11.85 2 24s9.85 22 22 22s22-9.85 22-22c0-1.33-.112-2.632-.389-3.917z"/><path fill="#FF3D00" d="m6.306 14.691l6.571 4.819C14.655 15.108 18.961 12 24 12c3.059 0 5.842 1.154 7.961 3.039l5.657-5.657C34.046 3.66 29.261 2 24 2C16.287 2 9.422 5.955 5.306 11.961l.011-.011z"/><path fill="#4CAF50" d="M24 46c5.132 0 9.811-1.604 13.626-4.329l-6.495-5.32C29.176 37.534 26.697 38 24 38c-5.039 0-9.345-3.108-11.123-7.51l-6.571 4.819C10.422 42.045 16.713 46 24 46z"/><path fill="#1976D2" d="M43.611 20.083H42V20H24v8h11.303a12.04 12.04 0 0 1-4.087 5.571l.003-.002l6.495 5.32C41.879 35.158 46 30.071 46 24c0-1.33-.112-2.632-.389-3.917z"/></svg>
