<svg xmlns="http://www.w3.org/2000/svg" viewBox="0 0 48 48"><path fill="#5f259f" d="M38 4H10C6.686 4 4 6.686 4 10v28c0 3.314 2.686 6 6 6h28c3.314 0 6-2.686 6-6V10c0-3.314-2.686-6-6-6z"/><path fill="#fff" d="M36.41 24.01c-1.12-1.12-2.94-1.12-4.06 0L24 32.36l-8.35-8.35c-1.12-1.12-2.94-1.12-4.06 0-1.12 1.12-1.12 2.94 0 4.06l10.38 10.38c1.12 1.12 2.94 1.12 4.06 0l10.38-10.38c1.13-1.12 1.13-2.94 0-4.06zM24 10.87c-1.58 0-2.87 1.29-2.87 2.87v12.13c0 1.58 1.29 2.87 2.87 2.87s2.87-1.29 2.87-2.87V13.74c0-1.58-1.29-2.87-2.87-2.87z"/></svg>
